PathFileType	4	(X/Y/Z)	C:/Users/opensim2020/Desktop/walking_exp_matlab/subject02_walking14_straight_03.trc																																																																																																																									
DataRate	CameraRate	NumFrames	NumMarkers	Units	OrigDataRate	OrigDataStartFrame	OrigNumFrames																																																																																																																					
100	100	6	41	mm	100	1350	127																																																																																																																					
Frame#	Time	LFHD			RFHD			LBHD			RBHD			C7			T10			CLAV			STRN			RBAK			LSHO			LUPA			LELB			LFRM			LWRA			LWRB			LFIN			RSHO			RUPA			RELB			RFRM			RWRA			RWRB			RFIN			LASI			RASI			LPSI			RPSI			LTHI			LKNE			LTIB			LANK			LHEE			LTOE			RTHI			RKNE			RTIB			RANK			RHEE			RTOE			*39			*40		
		X1	Y1	Z1	X2	Y2	Z2	X3	Y3	Z3	X4	Y4	Z4	X5	Y5	Z5	X6	Y6	Z6	X7	Y7	Z7	X8	Y8	Z8	X9	Y9	Z9	X10	Y10	Z10	X11	Y11	Z11	X12	Y12	Z12	X13	Y13	Z13	X14	Y14	Z14	X15	Y15	Z15	X16	Y16	Z16	X17	Y17	Z17	X18	Y18	Z18	X19	Y19	Z19	X20	Y20	Z20	X21	Y21	Z21	X22	Y22	Z22	X23	Y23	Z23	X24	Y24	Z24	X25	Y25	Z25	X26	Y26	Z26	X27	Y27	Z27	X28	Y28	Z28	X29	Y29	Z29	X30	Y30	Z30	X31	Y31	Z31	X32	Y32	Z32	X33	Y33	Z33	X34	Y34	Z34	X35	Y35	Z35	X36	Y36	Z36	X37	Y37	Z37	X38	Y38	Z38	X39	Y39	Z39	X40	Y40	Z40	X41	Y41	Z41
																																																																																																																												
112	1.11	705.15778	1691.47986	1422.37708	728.25671	1680.54932	1564.1095	572.80072	1621.87549	1440.30627	583.08282	1609.73047	1582.20642	524.19934	1482.55347	1512.93823	478.02866	1204.67346	1523.47205	664.7121	1414.91687	1496.17908	721.84222	1246.20142	1502.5061	471.84991	1304.32336	1575.58936	586.26318	1456.55042	1331.19092	596.85315	1268.41528	1233.29407	632.01331	1132.35156	1196.60278	737.82092	1048.46277	1190.51782	867.00165	1022.09869	1223.45691	839.47278	980.38757	1197.25952	903.65613	966.2417	1190.61145	602.47809	1447.86047	1695.23755	529.2995	1278.09827	1781.72144	504.53195	1137.04456	1809.8623	492.65247	1020.22986	1841.27441	495.55493	882.6864	1834.36047	450.8627	898.84387	1865.78406	461.65366	826.4234	1872.24072	690.3689	930.04755	1377.0946	733.17999	946.77753	1625.44189	498.44882	984.5495	1484.76855	508.77646	996.83685	1600.92236	543.90112	636.86133	1343.41125	469.01273	459.26764	1373.21411	309.62637	352.8548	1394.86401	174.63524	175.50441	1432.8844	145.24089	180.53912	1491.05945	244.68536	33.88965	1423.77234	762.16699	672.68054	1719.6532	837.21619	477.04282	1673.09436	836.46802	290.10791	1693.13757	835.88928	96.10749	1666.10583	792.39917	42.76773	1622.38257	990.15863	44.05417	1649.36951	621.77167	1765.21643	1523.54163	2845.22705	1034.36145	-3360.28955
113	1.12	719.61365	1692.60608	1421.12231	743.53088	1681.71606	1562.68005	587.15027	1623.30725	1439.99976	598.33423	1611.31555	1581.78455	538.85114	1483.74915	1512.03247	492.94617	1205.81531	1522.71204	679.40814	1416.51001	1495.46667	736.97345	1247.99146	1502.06519	486.93973	1305.3717	1574.85474	600.97809	1458.04163	1330.85193	609.40747	1269.21606	1233.40857	643.11792	1132.80261	1197.60974	748.26215	1047.71191	1190.43982	877.46155	1021.15057	1221.24109	849.33698	979.15552	1196.38867	913.12354	964.85883	1188.10876	617.31921	1449.62329	1694.47778	546.55188	1279.14026	1781.85144	523.21967	1137.67395	1809.63733	512.32855	1021.23895	1841.66467	515.45081	883.51324	1835.18701	471.03183	899.6734	1866.91699	481.47742	826.86975	1873.21619	706.9082	930.18811	1379.9574	749.42529	949.7453	1626.70032	514.453	985.19403	1483.38025	524.58203	997.37189	1600.16125	565.80939	634.79639	1343.3811	495.45221	456.85416	1371.47595	335.06769	355.26831	1394.15515	194.29623	183.84125	1431.66174	165.60478	191.7258	1490.51038	252.12645	37.55232	1424.55188	777.93622	672.67017	1719.48547	850.03168	476.8493	1671.896	843.4715	290.49005	1692.29883	836.32855	95.97571	1665.0249	792.51508	42.95882	1621.89392	991.03668	43.46926	1647.94885	637.0033	1766.58313	1522.72058	2846.06665	1034.46863	-3357.56445
114	1.13	734.07813	1694.18262	1419.85437	758.60541	1683.26025	1561.01367	601.53589	1625.0249	1439.40503	613.4624	1613.06726	1581.08057	553.25751	1485.45618	1511.45459	507.6434	1207.25439	1522.08972	694.00586	1418.26245	1494.46619	751.82465	1249.92651	1501.25146	502.02695	1306.86206	1574.21399	615.20844	1459.64258	1330.24548	621.98499	1270.37891	1233.54785	653.57758	1133.34253	1198.46594	757.74982	1047.12451	1190.47693	887.08844	1019.56097	1219.37146	858.19836	977.36554	1195.59656	921.29242	962.5141	1185.8739	631.99048	1451.66125	1693.23535	563.85583	1280.40735	1781.6272	542.18323	1138.7168	1809.36877	532.44623	1022.3974	1841.70337	536.21344	884.66113	1835.76941	492.10239	900.79718	1867.91028	502.8924	827.99878	1874.46838	723.2193	931.2923	1383.05322	765.18896	953.05042	1627.71265	529.89447	986.50977	1482.61487	540.26141	998.30267	1599.63	587.79987	632.27405	1343.16174	522.68561	454.46857	1369.39661	361.4827	356.79025	1392.1925	214.61499	192.78717	1431.59021	186.68219	202.62558	1490.672	265.80859	44.71988	1423.01587	791.17932	670.30298	1716.85999	860.91785	476.31998	1670.9071	848.24091	289.96576	1691.09863	837.21332	96.09116	1664.4884	792.59839	43.12029	1621.50256	991.33301	43.29677	1648.18079	652.01886	1768.35547	1521.88269	2845.97876	1034.52722	-3357.40918
115	1.14	748.20746	1696.26575	1418.2417	773.10223	1685.01379	1558.66187	615.77124	1627.23718	1438.57446	628.53119	1615.23621	1580.15076	567.20129	1487.14453	1510.34082	523.16492	1209.33276	1521.98816	708.43488	1420.39026	1493.20276	766.28381	1252.15271	1500.01587	517.05054	1308.97681	1573.66577	629.01587	1461.48047	1329.37695	634.72943	1271.50293	1233.85205	663.61792	1134.02563	1199.37427	766.37427	1046.56824	1190.73254	895.96606	1017.21509	1217.57532	866.09589	975.16199	1195.03259	928.27771	959.23224	1183.87329	646.87854	1454.15686	1692.03748	581.31812	1281.92908	1781.09924	561.39545	1140.07031	1808.97205	552.84662	1023.74237	1841.50085	557.70819	886.04584	1836.14355	513.89258	902.11298	1868.59546	524.89142	829.08014	1875.10962	738.61163	932.72003	1385.17334	780.36206	956.42334	1628.48315	544.58649	988.36469	1482.08716	555.44141	999.73694	1599.10876	609.92413	629.71735	1342.9519	550.51941	452.47388	1367.1814	388.4711	358.18558	1389.21606	236.03967	201.51939	1433.21985	209.76146	211.28481	1492.43311	284.41422	51.63401	1418.87878	803.30328	668.84296	1714.78821	869.57056	475.03119	1669.88525	851.88324	288.87885	1690.02332	837.86688	96.08508	1664.16516	792.57861	43.19643	1621.31396	991.35199	43.0358	1647.76611	666.93518	1770.52148	1520.95569	2845.95459	1034.55273	-3357.25635
116	1.15	762.33063	1698.80261	1416.46106	787.94684	1687.47229	1556.73059	629.95898	1629.92444	1437.479	643.40143	1617.78064	1579.01257	581.21783	1489.49133	1509.42932	537.52667	1211.92566	1521.87805	722.55585	1422.95032	1491.67639	780.42969	1254.63196	1498.33923	531.61975	1311.22839	1572.63708	642.27588	1463.51624	1328.03564	645.80511	1273.03479	1233.54639	673.4425	1134.90332	1200.34937	774.94128	1045.54199	1190.95435	903.99847	1014.29529	1216.03406	872.88806	972.50543	1194.6709	934.19641	955.17633	1182.13733	661.78986	1457.00208	1690.69214	598.86841	1283.50757	1780.1825	580.63281	1141.63599	1808.28027	573.76569	1025.51294	1841.33203	580.03156	887.88434	1836.35034	536.41278	903.77765	1869.13867	548.18994	830.88483	1875.94727	753.16302	934.70032	1386.39063	795.04047	959.75616	1628.78833	558.58698	990.9007	1481.84863	570.32196	1001.93353	1598.85071	632.52191	628.1662	1342.21057	578.69196	450.98575	1365.00208	415.66675	360.31027	1386.89404	260.12439	209.38583	1435.30164	234.75229	217.58122	1495.60022	306.34775	59.93239	1415.38513	813.95294	670.56183	1713.62268	876.67572	473.5593	1669.04016	854.95105	288.03094	1689.45972	837.85577	95.77444	1663.50183	792.49023	42.95629	1621.01025	991.49292	43.06278	1647.90063	681.51056	1772.92761	1519.49829	2845.34741	1034.22778	-3360.37866
117	1.16	776.19141	1701.74622	1414.47302	802.63513	1690.22937	1554.53772	643.76581	1632.7113	1436.05798	658.17957	1620.64685	1577.56848	595.45172	1492.52515	1508.47241	551.96124	1214.78613	1521.75317	736.48029	1425.89734	1489.87854	794.42712	1257.50952	1496.42529	546.33832	1314.18018	1572.17871	655.32959	1466.1355	1326.6687	657.54956	1274.67932	1233.58923	682.6524	1136.02515	1201.38293	782.49756	1044.84448	1191.29712	911.24268	1010.76941	1214.59229	878.66541	969.52502	1194.31226	939.0271	950.51056	1180.64746	677.23877	1460.16089	1689.35022	616.88513	1285.72095	1779.60437	600.30817	1143.73132	1807.69019	595.14203	1027.74878	1841.16394	603.09613	890.07648	1836.23547	559.37091	905.59088	1869.16284	572.41193	833.16272	1876.60242	766.71698	937.42267	1386.38611	809.4165	962.90283	1628.37549	572.34827	994.33374	1482.21436	584.91266	1005.01532	1598.88904	654.48547	629.01947	1341.60999	606.75989	450.44131	1363.36584	443.36557	363.51727	1386.31226	286.15356	215.80135	1437.46313	261.33694	222.18927	1498.95496	331.12704	67.19881	1411.12549	824.22473	672.5097	1712.44922	883.09192	473.01617	1668.31433	858.00568	287.88562	1689.45837	838.29321	95.89814	1663.31531	792.38831	43.30661	1621.10913	991.54163	43.01019	1647.73926	695.97559	1775.77087	1517.93359	2845.15112	1034.32825	-3360.25806
